<svg width="400" height="377" viewBox="0 0 400 377" fill="none" xmlns="http://www.w3.org/2000/svg">
<path d="M282.749 144.315C289.552 141.24 297.1 139.563 305.02 139.563C335.399 139.563 360 164.257 360 194.635C360 225.014 335.306 249.708 304.927 249.708H122.563H117.437C74.6651 249.708 40 215.043 40 172.271C40 129.499 74.6651 94.8334 117.437 94.8334C127.408 94.8334 137.006 96.7903 145.859 100.238C157.041 74.7985 182.388 57 212.021 57C251.998 57 284.333 89.4287 284.333 129.312C284.333 134.437 283.774 139.469 282.749 144.315Z" stroke="#FFC700" stroke-width="10" stroke-miterlimit="10"/>
<path d="M215.82 324C224.581 324 231.683 316.849 231.683 308.027C231.683 299.205 224.581 292.054 215.82 292.054C207.059 292.054 199.957 299.205 199.957 308.027C199.957 316.849 207.059 324 215.82 324Z" stroke="#FFC700" stroke-width="5" stroke-miterlimit="10"/>
<path d="M136.676 308.113C145.437 308.113 152.539 300.962 152.539 292.14C152.539 283.319 145.437 276.167 136.676 276.167C127.915 276.167 120.813 283.319 120.813 292.14C120.813 300.962 127.915 308.113 136.676 308.113Z" stroke="#FFC700" stroke-width="5" stroke-miterlimit="10"/>
<path d="M298.137 295.335C306.898 295.335 314 288.184 314 279.362C314 270.54 306.898 263.389 298.137 263.389C289.376 263.389 282.274 270.54 282.274 279.362C282.274 288.184 289.376 295.335 298.137 295.335Z" stroke="#FFC700" stroke-width="5" stroke-miterlimit="10"/>
<path d="M244.288 282.557C249.545 282.557 253.806 278.266 253.806 272.973C253.806 267.68 249.545 263.389 244.288 263.389C239.032 263.389 234.77 267.68 234.77 272.973C234.77 278.266 239.032 282.557 244.288 282.557Z" stroke="#FFC700" stroke-width="5" stroke-miterlimit="10"/>
<path d="M95.5179 276.168C100.774 276.168 105.036 271.877 105.036 266.584C105.036 261.291 100.774 257 95.5179 257C90.2613 257 86 261.291 86 266.584C86 271.877 90.2613 276.168 95.5179 276.168Z" stroke="#FFC700" stroke-width="5" stroke-miterlimit="10"/>
<path d="M184.18 295.335C189.436 295.335 193.698 291.044 193.698 285.751C193.698 280.458 189.436 276.167 184.18 276.167C178.923 276.167 174.662 280.458 174.662 285.751C174.662 291.044 178.923 295.335 184.18 295.335Z" stroke="#FFC700" stroke-width="5" stroke-miterlimit="10"/>
<path d="M158.799 320.805C162.303 320.805 165.144 317.945 165.144 314.416C165.144 310.888 162.303 308.027 158.799 308.027C155.294 308.027 152.454 310.888 152.454 314.416C152.454 317.945 155.294 320.805 158.799 320.805Z" stroke="#FFC700" stroke-width="5" stroke-miterlimit="10"/>
<path d="M101.777 304.832C105.282 304.832 108.123 301.972 108.123 298.443C108.123 294.915 105.282 292.054 101.777 292.054C98.273 292.054 95.4321 294.915 95.4321 298.443C95.4321 301.972 98.273 304.832 101.777 304.832Z" stroke="#FFC700" stroke-width="5" stroke-miterlimit="10"/>
<path d="M256.979 308.027C260.483 308.027 263.324 305.166 263.324 301.638C263.324 298.109 260.483 295.249 256.979 295.249C253.474 295.249 250.633 298.109 250.633 301.638C250.633 305.166 253.474 308.027 256.979 308.027Z" stroke="#FFC700" stroke-width="5" stroke-miterlimit="10"/>
<path d="M285.532 314.416C289.037 314.416 291.877 311.556 291.877 308.027C291.877 304.498 289.037 301.638 285.532 301.638C282.028 301.638 279.187 304.498 279.187 308.027C279.187 311.556 282.028 314.416 285.532 314.416Z" stroke="#FFC700" stroke-width="5" stroke-miterlimit="10"/>
</svg>
