<svg width="400" height="400" viewBox="0 0 400 400" fill="none" xmlns="http://www.w3.org/2000/svg">
<path d="M304.956 186.719C297.026 186.719 289.563 188.381 282.752 191.428C283.778 186.626 284.338 181.64 284.338 176.562C284.338 137.041 251.965 105 212.035 105C182.461 105 157.085 122.636 145.889 147.845C137.12 144.428 127.51 142.489 117.434 142.489C74.7055 142.489 40 176.839 40 219.129C40 261.42 74.7055 295.769 117.434 295.769C119.207 295.769 120.886 295.677 122.566 295.585V295.769H304.956C335.37 295.769 360 271.392 360 241.29C360 211.188 335.37 186.719 304.956 186.719Z" stroke="#FFC700" stroke-width="10" stroke-miterlimit="10"/>
</svg>
