<svg width="400" height="400" viewBox="0 0 400 400" fill="none" xmlns="http://www.w3.org/2000/svg">
<path d="M305.02 200.713C297.1 200.713 289.552 202.392 282.749 205.472C283.774 200.62 284.333 195.581 284.333 190.449C284.333 150.515 251.998 118.044 212.021 118.044C182.388 118.044 157.041 135.866 145.859 161.338C137.006 157.886 127.408 155.926 117.437 155.926C74.6651 155.926 40 190.636 40 233.463C40 276.29 74.6651 311 117.437 311C119.208 311 120.885 310.907 122.563 310.813V311H304.927C335.306 311 360 286.274 360 255.856C360 225.439 335.399 200.713 305.02 200.713Z" stroke="#FFC700" stroke-width="10" stroke-miterlimit="10" stroke-linejoin="round"/>
<path d="M73.8264 149.768L97.4956 157.233C97.4024 157.606 97.4025 158.072 97.4025 158.446C103.832 156.766 110.542 155.833 117.437 155.833C127.501 155.833 137.1 157.792 145.859 161.245C153.5 143.89 167.665 130.081 185.37 122.99L196.552 105.915L178.381 122.71C175.026 120.097 171.299 117.951 167.385 116.272L170.833 101.996L164.123 114.965C160.116 113.566 155.923 112.726 151.637 112.353L148.934 88L145.673 112.166C141.107 112.353 136.727 113.099 132.627 114.405L125.079 99.4766L128.806 115.805C124.52 117.578 120.606 119.817 116.971 122.616L98.7071 106.474L112.312 126.815C109.33 129.708 106.721 133.067 104.485 136.705L90.7863 131.014L102.714 139.971C100.85 143.517 99.4525 147.342 98.5207 151.354L73.8264 149.768Z" stroke="#FFC700" stroke-width="5" stroke-miterlimit="10" stroke-linejoin="round"/>
</svg>
