<svg width="400" height="400" viewBox="0 0 400 400" fill="none" xmlns="http://www.w3.org/2000/svg">
<g opacity="0.8">
<path d="M109.368 149.137C108.539 149.414 107.801 149.783 106.972 150.06C107.709 149.783 108.539 149.506 109.368 149.137Z" stroke="black" stroke-width="10" stroke-miterlimit="10" stroke-linejoin="round"/>
<path d="M112.04 148.215C111.395 148.399 110.75 148.584 110.197 148.861C110.842 148.584 111.487 148.399 112.04 148.215Z" stroke="black" stroke-width="10" stroke-miterlimit="10" stroke-linejoin="round"/>
<path d="M115.542 147.2C114.62 147.385 113.791 147.661 112.962 147.938C113.791 147.661 114.62 147.477 115.542 147.2Z" stroke="black" stroke-width="10" stroke-miterlimit="10" stroke-linejoin="round"/>
<path d="M103.471 151.72C102.918 151.997 102.457 152.273 101.904 152.55C102.457 152.181 103.01 151.997 103.471 151.72Z" stroke="black" stroke-width="10" stroke-miterlimit="10" stroke-linejoin="round"/>
<path d="M97.9418 154.764C97.4811 155.041 97.0204 155.317 96.6518 155.594C97.1125 155.317 97.4811 155.041 97.9418 154.764Z" stroke="black" stroke-width="10" stroke-miterlimit="10" stroke-linejoin="round"/>
<path d="M101.075 153.011C100.338 153.38 99.6005 153.841 98.9554 154.21C99.6005 153.749 100.338 153.38 101.075 153.011Z" stroke="black" stroke-width="10" stroke-miterlimit="10" stroke-linejoin="round"/>
<path d="M118.306 146.554C117.569 146.739 116.832 146.923 116.094 147.108C116.739 146.923 117.477 146.739 118.306 146.554Z" stroke="black" stroke-width="10" stroke-miterlimit="10" stroke-linejoin="round"/>
<path d="M121.347 146.001C120.61 146.093 119.872 146.278 119.135 146.37C119.872 146.278 120.61 146.093 121.347 146.001Z" stroke="black" stroke-width="10" stroke-miterlimit="10" stroke-linejoin="round"/>
<path d="M134.247 145.263C133.326 145.263 132.404 145.171 131.483 145.171C132.312 145.171 133.326 145.171 134.247 145.263Z" stroke="black" stroke-width="10" stroke-miterlimit="10" stroke-linejoin="round"/>
<path d="M95.6382 156.332C95.1775 156.609 94.8089 156.885 94.3481 157.254C94.8089 156.885 95.1775 156.609 95.6382 156.332Z" stroke="black" stroke-width="10" stroke-miterlimit="10" stroke-linejoin="round"/>
<path d="M131.391 145.171C130.377 145.171 129.456 145.171 128.442 145.263C129.456 145.263 130.469 145.171 131.391 145.171Z" stroke="black" stroke-width="10" stroke-miterlimit="10" stroke-linejoin="round"/>
<path d="M124.756 145.54C123.835 145.632 122.913 145.724 121.992 145.909C122.821 145.724 123.835 145.632 124.756 145.54Z" stroke="black" stroke-width="10" stroke-miterlimit="10" stroke-linejoin="round"/>
<path d="M127.705 145.263C126.967 145.263 126.23 145.355 125.493 145.448C126.23 145.448 126.967 145.355 127.705 145.263Z" stroke="black" stroke-width="10" stroke-miterlimit="10" stroke-linejoin="round"/>
<path d="M106.327 150.336C105.682 150.613 105.037 150.89 104.392 151.166C105.037 150.89 105.682 150.613 106.327 150.336Z" stroke="black" stroke-width="10" stroke-miterlimit="10" stroke-linejoin="round"/>
<path d="M76.4716 177.178C76.3795 177.363 76.2873 177.547 76.1952 177.639C76.2873 177.547 76.3795 177.363 76.4716 177.178Z" fill="white" stroke="black" stroke-miterlimit="10" stroke-linejoin="round"/>
<path d="M92.8738 158.269C92.4131 158.638 92.0445 158.915 91.5837 159.284C92.0445 159.007 92.5052 158.638 92.8738 158.269Z" stroke="black" stroke-width="10" stroke-miterlimit="10" stroke-linejoin="round"/>
<path d="M78.5912 173.673C78.499 173.857 78.3147 174.042 78.2226 174.226C78.4069 174.134 78.499 173.857 78.5912 173.673Z" fill="white" stroke="black" stroke-miterlimit="10" stroke-linejoin="round"/>
<path d="M75.3661 179.207C75.2739 179.484 75.0896 179.668 74.9975 179.945C75.0896 179.761 75.2739 179.484 75.3661 179.207Z" fill="white" stroke="black" stroke-miterlimit="10" stroke-linejoin="round"/>
<path d="M80.0655 171.551C79.8812 171.828 79.6969 172.013 79.6048 172.289C79.6969 172.013 79.8812 171.828 80.0655 171.551Z" fill="white" stroke="black" stroke-miterlimit="10" stroke-linejoin="round"/>
<path d="M88.5429 161.958C88.2665 162.235 87.99 162.512 87.6215 162.789C87.99 162.512 88.2665 162.235 88.5429 161.958Z" stroke="black" stroke-width="10" stroke-miterlimit="10" stroke-linejoin="round"/>
<path d="M90.57 160.206C90.2936 160.483 89.925 160.759 89.6486 161.036C89.925 160.759 90.2014 160.483 90.57 160.206Z" stroke="black" stroke-width="10" stroke-miterlimit="10" stroke-linejoin="round"/>
<path d="M84.1199 166.571C83.9356 166.847 83.6591 167.032 83.4749 167.308C83.6591 167.032 83.8434 166.755 84.1199 166.571Z" stroke="black" stroke-width="10" stroke-miterlimit="10" stroke-linejoin="round"/>
<path d="M85.8707 164.633C85.5943 164.91 85.41 165.095 85.1335 165.371C85.41 165.095 85.5943 164.91 85.8707 164.633Z" stroke="black" stroke-width="10" stroke-miterlimit="10" stroke-linejoin="round"/>
<path d="M72.233 196.272C72.6937 196.364 73.0623 196.364 73.5231 196.456C73.7995 196.456 74.0759 196.548 74.3524 196.548C74.721 196.641 75.0895 196.641 75.5503 196.733C75.8267 196.825 76.1031 196.825 76.3796 196.917C76.7482 197.01 77.1167 197.102 77.4853 197.194C77.7618 197.286 78.0382 197.286 78.3146 197.378C78.6832 197.471 79.1439 197.563 79.5125 197.655C79.789 197.747 80.0654 197.84 80.2497 197.84C80.7104 197.932 81.079 198.116 81.5397 198.209C81.724 198.301 82.0005 198.301 82.1848 198.393C82.8298 198.578 83.4748 198.854 84.0277 199.131C86.147 194.335 89.0035 190.092 92.5972 186.402C92.9658 186.033 93.3344 185.664 93.703 185.295C95.5459 183.543 97.5731 181.882 99.6925 180.499C102.273 178.746 105.037 177.362 107.893 176.163C112.777 174.226 118.029 173.212 123.558 173.212C130.285 173.212 136.551 174.688 142.264 177.455C142.909 177.731 143.554 178.1 144.107 178.377C145.305 179.023 146.503 179.761 147.7 180.499C148.806 181.237 149.912 182.067 151.018 182.989C153.137 184.742 155.072 186.679 156.823 188.8C157.744 189.907 158.574 191.014 159.311 192.121C163.918 199.039 166.682 207.34 166.682 216.195C166.682 218.501 166.498 220.807 166.13 223.021C166.037 223.759 165.853 224.497 165.761 225.235C169.815 223.39 174.331 222.375 179.03 222.375C188.705 222.375 197.367 226.526 203.356 233.167C204.094 233.905 204.739 234.736 205.384 235.566C206.674 237.226 207.779 239.071 208.701 241.008C210.083 243.867 211.097 247.003 211.557 250.232C211.834 251.892 211.926 253.552 211.926 255.213C211.926 255.858 211.926 256.504 211.834 257.242C211.834 257.426 211.834 257.611 211.834 257.795C211.834 258.257 211.742 258.81 211.65 259.271C211.65 259.456 211.65 259.64 211.557 259.825C211.465 260.47 211.373 261.024 211.281 261.669C211.281 261.669 211.281 261.669 211.281 261.762C211.189 262.407 211.005 263.145 210.82 263.791C210.82 263.883 210.82 263.883 210.728 263.975C210.544 264.621 210.36 265.175 210.175 265.728C210.175 265.82 210.083 265.912 210.083 265.912C209.438 267.85 208.609 269.694 207.595 271.539H261.685C261.685 270.986 261.593 270.432 261.593 269.879C261.593 254.014 274.401 241.192 290.158 241.192C293.844 241.192 297.437 241.93 300.662 243.222C304.809 233.813 314.208 227.172 325.081 227.172C326.555 227.172 327.938 227.264 329.32 227.541C329.32 227.172 329.32 226.803 329.32 226.526C329.32 201.714 309.14 181.513 284.353 181.606C277.902 181.606 271.729 182.989 266.2 185.48C267.029 181.513 267.49 177.362 267.49 173.212C267.49 140.559 241.044 114.178 208.517 114.178C184.374 114.178 163.642 128.752 154.519 149.598C148.99 147.385 143.001 146.001 136.827 145.448C135.906 145.355 134.984 145.263 134.063 145.263C133.141 145.263 132.22 145.171 131.298 145.171C130.285 145.171 129.363 145.171 128.35 145.263C128.073 145.263 127.797 145.263 127.52 145.355C126.783 145.355 126.046 145.448 125.309 145.54C125.033 145.54 124.848 145.54 124.572 145.632C123.65 145.724 122.729 145.817 121.807 146.001C121.623 146.001 121.439 146.093 121.255 146.093C120.517 146.185 119.78 146.37 119.043 146.462C118.767 146.554 118.49 146.554 118.214 146.647C117.477 146.831 116.739 147.016 116.002 147.2C115.818 147.2 115.634 147.292 115.449 147.292C114.528 147.477 113.699 147.754 112.869 148.03C112.593 148.123 112.316 148.215 112.04 148.307C111.395 148.491 110.75 148.676 110.197 148.953C109.921 149.045 109.644 149.137 109.368 149.229C108.538 149.506 107.801 149.875 106.972 150.152C106.788 150.244 106.603 150.336 106.419 150.429C105.774 150.705 105.129 150.982 104.484 151.259C104.208 151.443 103.839 151.535 103.563 151.72C103.01 151.997 102.549 152.273 101.996 152.55C101.72 152.734 101.443 152.827 101.075 153.011C100.337 153.38 99.6003 153.841 98.9553 154.21C98.6789 154.395 98.3103 154.579 98.0338 154.764C97.5731 155.04 97.1124 155.317 96.7438 155.594C96.3752 155.778 96.0988 156.055 95.7302 156.332C95.2695 156.609 94.9009 156.885 94.4401 157.254C93.9794 157.623 93.4265 157.992 92.9658 158.361C92.5051 158.73 92.1365 159.007 91.6758 159.376C91.3072 159.652 90.9386 159.929 90.57 160.298C90.2936 160.575 89.925 160.852 89.6486 161.128C89.28 161.405 88.9114 161.774 88.5428 162.051C88.2664 162.327 87.9899 162.604 87.6214 162.881C86.9763 163.434 86.4235 164.08 85.8706 164.633C85.5942 164.91 85.4099 165.095 85.1334 165.371C84.7648 165.74 84.3963 166.109 84.1198 166.57C83.9355 166.847 83.6591 167.032 83.4748 167.308C82.2769 168.692 81.1712 170.168 80.0654 171.644C79.8811 171.92 79.6968 172.105 79.6047 172.382C79.2361 172.843 78.9597 173.304 78.6832 173.765C78.5911 173.95 78.4068 174.134 78.3146 174.319C77.6696 175.241 77.1167 176.256 76.5639 177.178C76.4717 177.362 76.3796 177.547 76.2874 177.639C76.011 178.193 75.7346 178.654 75.4581 179.207C75.366 179.484 75.1817 179.668 75.0895 179.945C74.8131 180.499 74.5367 181.052 74.2602 181.513C72.1409 186.033 70.4822 190.829 69.5608 195.903C70.2058 195.903 70.943 195.995 71.588 196.087C71.7723 196.179 72.0487 196.179 72.233 196.272Z" stroke="black" stroke-width="10" stroke-miterlimit="10" stroke-linejoin="round"/>
<path d="M75.366 179.207C75.6424 178.654 75.9189 178.193 76.1953 177.639C76.2874 177.455 76.3796 177.27 76.4717 177.178C77.0246 176.163 77.5775 175.241 78.2225 174.319C78.3146 174.134 78.4989 173.95 78.5911 173.765C78.8675 173.304 79.2361 172.843 79.5125 172.382C79.6968 172.105 79.8811 171.92 79.9733 171.644C81.079 170.168 82.1848 168.692 83.3827 167.308C83.567 167.032 83.8434 166.847 84.0277 166.57C84.3963 166.201 84.7649 165.833 85.0413 165.371C85.3177 165.095 85.502 164.818 85.7785 164.633C86.3313 163.988 86.9764 163.434 87.6214 162.881C87.8978 162.604 88.1742 162.327 88.5428 162.051C88.9114 161.682 89.28 161.405 89.6486 161.128C89.925 160.852 90.2936 160.575 90.57 160.298C90.9386 160.021 91.3072 159.745 91.6758 159.376C92.1365 159.007 92.5051 158.73 92.9658 158.361C93.4266 157.992 93.9794 157.623 94.4402 157.254C94.8087 156.978 95.2695 156.701 95.7302 156.332C96.0988 156.055 96.3752 155.871 96.7438 155.594C97.2045 155.317 97.5731 155.04 98.0338 154.764C98.3103 154.579 98.6789 154.395 98.9553 154.21C99.6925 153.749 100.337 153.38 101.075 153.011C101.351 152.827 101.628 152.735 101.996 152.55C102.549 152.273 103.01 151.997 103.563 151.72C103.839 151.535 104.208 151.443 104.484 151.259C105.129 150.982 105.774 150.705 106.419 150.429C106.603 150.336 106.788 150.244 106.972 150.152C107.801 149.783 108.538 149.506 109.368 149.229C109.644 149.137 109.921 149.045 110.197 148.953C110.842 148.768 111.395 148.491 112.04 148.307C112.316 148.215 112.593 148.123 112.869 148.03C113.699 147.754 114.62 147.477 115.449 147.292C115.634 147.2 115.818 147.2 116.002 147.2C116.739 147.016 117.477 146.831 118.214 146.647C118.49 146.554 118.767 146.554 119.043 146.462C119.78 146.278 120.517 146.185 121.255 146.093C121.439 146.093 121.623 146.001 121.807 146.001C122.729 145.817 123.65 145.724 124.572 145.632C124.848 145.632 125.033 145.632 125.309 145.54C126.046 145.448 126.783 145.448 127.52 145.355C127.797 145.355 128.073 145.355 128.35 145.355C129.271 145.355 130.285 145.263 131.298 145.263C132.22 145.263 133.141 145.263 134.063 145.355C134.984 145.355 135.906 145.448 136.827 145.54C145.212 109.29 170 79.404 202.896 64C136.735 66.4905 82.7376 116.853 74.1681 181.513C74.4445 180.96 74.721 180.406 74.9974 179.945C75.0895 179.761 75.2738 179.484 75.366 179.207Z" stroke="black" stroke-width="10" stroke-miterlimit="10" stroke-linejoin="round"/>
<path d="M292.093 298.658C291.448 298.658 290.803 298.75 290.158 298.75C282.694 298.75 275.967 295.89 270.899 291.278C265.278 292.109 259.473 292.57 253.576 292.57C234.502 292.57 216.533 288.142 200.5 280.21C194.695 285.283 187.139 288.327 178.846 288.327H106.235C131.022 316.921 167.696 335 208.517 335C244.085 335 276.52 321.256 300.662 298.75L292.093 298.658Z" stroke="black" stroke-width="10" stroke-miterlimit="10" stroke-linejoin="round"/>
<path d="M359.544 257.98C356.595 257.98 353.831 258.626 351.343 259.733C351.711 257.98 351.896 256.043 351.896 254.198C351.896 240.823 342.128 229.847 329.412 227.818C328.03 227.633 326.648 227.449 325.173 227.449C314.208 227.449 304.809 233.998 300.755 243.498C297.53 242.207 293.936 241.469 290.25 241.469C274.401 241.469 261.593 254.29 261.593 270.156C261.593 270.709 261.593 271.263 261.685 271.816C262.146 279.564 265.647 286.482 270.992 291.371C276.06 295.983 282.878 298.842 290.25 298.842C290.895 298.842 291.54 298.842 292.185 298.75V298.842H300.755H359.636C370.878 298.842 380 289.71 380 278.457C380 267.204 370.785 257.98 359.544 257.98Z" stroke="black" stroke-width="10" stroke-miterlimit="10" stroke-linejoin="round"/>
<path d="M200.592 280.117C203.356 277.719 205.66 274.86 207.503 271.631C208.517 269.879 209.346 268.034 209.991 266.005C209.991 265.913 210.083 265.82 210.083 265.82C210.267 265.267 210.452 264.621 210.636 264.068C210.636 263.975 210.636 263.975 210.728 263.883C210.912 263.238 211.097 262.592 211.189 261.854C211.189 261.854 211.189 261.854 211.189 261.762C211.281 261.116 211.373 260.563 211.465 259.917C211.465 259.732 211.557 259.548 211.557 259.364C211.65 258.902 211.65 258.349 211.742 257.888C211.742 257.703 211.742 257.519 211.742 257.334C211.742 256.689 211.834 256.043 211.834 255.305C211.834 253.645 211.742 251.892 211.465 250.324C211.005 247.096 209.991 243.96 208.609 241.1C207.687 239.163 206.582 237.41 205.292 235.658C204.647 234.828 204.002 233.998 203.264 233.26C197.275 226.618 188.613 222.468 178.938 222.468C174.238 222.468 169.723 223.482 165.669 225.327C165.853 224.589 165.945 223.851 166.037 223.113C166.406 220.9 166.59 218.594 166.59 216.288C166.59 207.34 163.918 199.039 159.219 192.213C158.481 191.106 157.652 189.999 156.731 188.892C154.98 186.771 153.045 184.834 150.926 183.081C149.82 182.159 148.714 181.329 147.608 180.591C146.503 179.853 145.305 179.115 144.015 178.469C143.37 178.1 142.817 177.824 142.172 177.547C136.551 174.78 130.193 173.304 123.466 173.304C117.937 173.304 112.685 174.319 107.801 176.256C104.853 177.363 102.18 178.838 99.6003 180.499C97.481 181.882 95.4538 183.543 93.6109 185.295C93.2423 185.664 92.8737 186.033 92.5051 186.402C88.9114 190.092 86.0549 194.335 83.9356 199.131C83.2905 198.854 82.7377 198.67 82.0926 198.393C81.9084 198.301 81.6319 198.301 81.4476 198.209C80.9869 198.024 80.6183 197.932 80.1576 197.84C79.8811 197.747 79.6047 197.655 79.4204 197.655C79.0518 197.563 78.6833 197.471 78.2225 197.378C77.9461 197.286 77.6696 197.286 77.3932 197.194C77.0246 197.102 76.656 197.01 76.2875 196.917C76.011 196.825 75.7346 196.825 75.4581 196.733C75.0896 196.641 74.721 196.641 74.2603 196.548C73.9838 196.548 73.7074 196.456 73.4309 196.456C72.9702 196.364 72.6016 196.364 72.1409 196.272C71.8645 196.272 71.588 196.179 71.3116 196.179C70.6666 196.087 69.9294 196.087 69.2844 195.995C68.5472 195.995 67.7179 195.903 66.9807 195.903C41.6407 195.903 21 216.564 21 242.115C21 267.665 41.6407 288.327 67.165 288.327C68.1786 288.327 69.1922 288.235 70.2058 288.235V288.327H106.235H178.938C187.231 288.327 194.879 285.191 200.592 280.117Z" stroke="black" stroke-width="10" stroke-miterlimit="10" stroke-linejoin="round"/>
</g>
</svg>
