<svg width="400" height="400" viewBox="0 0 400 400" fill="none" xmlns="http://www.w3.org/2000/svg">
<path d="M185.794 174.12V306.235C185.794 320.488 174.282 332 160.029 332C145.776 332 134.264 320.488 134.264 306.235V298.743" stroke="#FFC700" stroke-width="10" stroke-miterlimit="10" stroke-linecap="round"/>
<path d="M27 189.652C27 189.652 44.3595 96.3677 156.008 71.4248C156.008 71.4248 116.173 114.549 117.543 204.636C117.543 204.636 77.1598 155.39 27 189.652Z" stroke="#FFC700" stroke-width="10" stroke-miterlimit="10"/>
<path d="M342.486 189.195C342.486 189.195 325.127 95.9109 213.478 70.968C213.478 70.968 253.313 114.093 251.943 204.179C251.943 204.179 292.326 154.933 342.486 189.195Z" stroke="#FFC700" stroke-width="10"/>
<path d="M342.486 189.195C342.486 189.195 325.127 95.9109 213.478 70.968C213.478 70.968 253.313 114.093 251.943 204.179C251.943 204.179 292.326 154.933 342.486 189.195Z" stroke="#FFC700" stroke-width="10" stroke-miterlimit="10"/>
<path d="M185.52 68.1356C130.609 74.714 127.411 204.636 127.411 204.636C156.009 169.917 185.52 173.663 185.52 173.663C185.52 173.663 214.026 169.917 241.527 204.636C241.527 204.636 238.421 74.714 185.52 68.1356Z" stroke="#FFC700" stroke-width="10" stroke-miterlimit="10"/>
<path d="M191.184 59.2732H178.941C178.941 59.2732 179.855 50.8675 185.063 41C185.063 41 190.179 50.3193 191.184 59.2732Z" stroke="#FFC700" stroke-width="5" stroke-miterlimit="10"/>
</svg>
