<svg width="400" height="400" viewBox="0 0 400 400" fill="none" xmlns="http://www.w3.org/2000/svg">
<g clip-path="url(#clip0)">
<path d="M219.977 277.473H325.086C353.058 277.473 375.71 254.821 375.71 226.85C375.71 198.878 353.058 176.226 325.086 176.226C317.793 176.226 310.929 177.77 304.665 180.602C305.609 176.14 306.124 171.507 306.124 166.788C306.124 130.064 276.35 100.29 239.626 100.29C212.427 100.29 189.088 116.679 178.792 140.103C170.726 136.928 161.889 135.126 152.622 135.126C113.324 135.126 81.4053 167.045 81.4053 206.343" stroke="black" stroke-width="10" stroke-miterlimit="10"/>
<path d="M190.118 230.453C185.227 230.453 180.508 231.483 176.304 233.371C176.904 230.368 177.333 227.193 177.333 224.018C177.333 199.221 157.169 179.057 132.372 179.057C113.925 179.057 98.137 190.126 91.1869 206C85.6955 203.854 79.7751 202.653 73.5115 202.653C46.9125 202.653 25.376 224.19 25.376 250.789C25.376 277.388 46.9125 298.924 73.5115 298.924C74.6269 298.924 75.6566 298.838 76.6862 298.838V298.924H190.118C208.995 298.924 224.353 283.565 224.353 264.689C224.353 245.812 209.08 230.453 190.118 230.453Z" stroke="black" stroke-width="10" stroke-miterlimit="10"/>
</g>
<defs>
<clipPath id="clip0">
<rect width="359" height="207.214" fill="white" transform="translate(21 96)"/>
</clipPath>
</defs>
</svg>
