<svg width="467" height="294" viewBox="0 0 467 294" fill="none" xmlns="http://www.w3.org/2000/svg">
<g clip-path="url(#clip0)">
<g opacity="0.3">
<path d="M148.2 221.5V229.1H126.5L117.9 220.5C117.9 220.5 110.9 221.5 107.8 222.1C107.8 222.1 105.8 208.2 103.2 206.6V190.4L101 187.6H97.6001L90.6001 169.1C90.6001 169.1 88.6001 164.1 85.2001 162.7V161.2L82.0001 158C82.0001 158 37.2001 168.1 31.9001 202.9L33.3001 203.8V208.3C33.3001 208.3 32.8001 209.5 32.6001 210.8C32.6001 210.8 31.9001 211.5 31.9001 214.2L32.5001 215.4V225.2C32.5001 225.2 28.9001 230.9 31.9001 238.3V247.3C31.9001 247.3 26.8001 252.8 31.3001 257.7V273.3C31.3001 273.3 29.6001 275.4 31.3001 276.6V294H229.6V244.3C229.7 244.3 222.8 219.3 148.2 221.5ZM60.4001 186.7L64.4001 185.4V191.8L60.4001 192.9V186.7V186.7ZM43.6001 198.9L46.1001 196.7V203.1L43.6001 205V198.9ZM41.3001 254.8C41.4001 251.9 42.2001 249.5 43.7001 249.5C44.9001 249.5 45.4001 251.8 45.4001 254.8V264.6L41.3001 266V255.7C41.3001 255.6 41.3001 255.4 41.3001 255.3C41.3001 255.1 41.3001 255 41.3001 254.8ZM35.3001 209.5L36.6001 208.1V214.2L35.3001 215.3V209.5ZM34.8001 235.2C34.8001 233 35.2001 231.1 35.9001 231.1C36.5001 231.1 36.7001 232.8 36.7001 235.1V242.4L34.9001 243.4V235.7C34.9001 235.6 34.9001 235.5 34.9001 235.4C34.8001 235.4 34.8001 235.3 34.8001 235.2ZM35.7001 267.2L33.9001 268.2V260.5C33.9001 260.4 33.9001 260.3 33.9001 260.2C33.9001 260.1 33.9001 260 33.9001 259.9C33.9001 257.7 34.3001 255.9 35.0001 255.9C35.6001 255.9 35.8001 257.6 35.8001 259.9V267.2H35.7001ZM39.1001 291.9H36.4001V283.4C36.4001 283.3 36.4001 283.2 36.4001 283.1C36.4001 283 36.4001 282.9 36.4001 282.8C36.5001 280.4 36.8001 278.5 37.7001 278.5C38.4001 278.5 39.0001 280.4 39.0001 282.8V291.9H39.1001ZM39.7001 266L37.1001 267.1V257.9C37.1001 257.8 37.1001 257.7 37.1001 257.5C37.1001 257.4 37.1001 257.3 37.1001 257.1C37.2001 254.5 37.7001 252.2 38.6001 252.2C39.4001 252.2 39.7001 254.3 39.7001 257.1V266ZM45.6001 291.9H40.6001V282.4C40.6001 282.3 40.6001 282.2 40.6001 282C40.6001 281.9 40.6001 281.8 40.6001 281.6C40.7001 278.9 40.8001 276.8 43.1001 276.8C44.4001 276.8 45.5001 278.9 45.6001 281.6V291.9ZM46.4001 237L42.3001 238.8V228.2C42.3001 228.1 42.3001 227.9 42.3001 227.8C42.3001 227.7 42.3001 227.5 42.3001 227.4C42.4001 224.6 43.2001 222.1 44.7001 222.1C45.9001 222.1 46.4001 224.4 46.4001 227.4V237ZM47.9001 253C47.9001 252.9 47.9001 252.7 47.9001 252.6C48.0001 249.5 49.7001 246.9 51.3001 246.9C53.2001 246.9 54.0001 249.3 54.0001 252.6V263.2L47.9001 264.4V253.4C47.9001 253.3 47.9001 253.1 47.9001 253ZM54.3001 291.9H48.1001V281.7C48.1001 281.6 48.1001 281.4 48.1001 281.3C48.1001 281.2 48.1001 281 48.1001 280.9C48.2001 278 48.8001 275.8 51.2001 275.8C52.8001 275.8 54.2001 278.1 54.3001 280.9V291.9ZM55.0001 232.8L48.9001 235.6V225.1C48.9001 225 48.9001 224.8 48.9001 224.7C48.9001 224.6 48.9001 224.4 48.9001 224.3C49.0001 221.2 50.7001 218.6 52.3001 218.6C54.2001 218.6 55.0001 221 55.0001 224.3V232.8ZM64.5001 291.9H56.9001V281.7C56.9001 281.6 56.9001 281.4 56.9001 281.3C56.9001 281.2 56.9001 281 56.9001 280.9C57.0001 278 58.7001 275.8 60.7001 275.8C62.7001 275.8 64.4001 278.1 64.5001 280.9V291.9ZM64.6001 261.3L57.3001 262.7V251.4C57.3001 251.3 57.3001 251.1 57.3001 251C57.3001 250.9 57.3001 250.7 57.3001 250.6C57.4001 247.4 59.4001 244.7 61.4001 244.7C63.6001 244.7 64.6001 247.2 64.6001 250.6V261.3ZM65.6001 229.9L58.3001 232.1V221.2C58.3001 221.1 58.3001 220.9 58.3001 220.8C58.3001 220.7 58.3001 220.5 58.3001 220.4C58.4001 217.2 60.1001 214.4 62.4001 214.1C64.6001 213.8 65.6001 216.6 65.6001 220V229.9ZM77.9001 291.9H68.7001V280.4C68.7001 280.3 68.7001 280.1 68.7001 280C68.7001 279.9 68.7001 279.7 68.7001 279.6C68.9001 276.4 70.9001 273.8 73.3001 273.8C75.7001 273.8 77.7001 276.3 77.9001 279.6V291.9V291.9ZM77.9001 259.7L68.9001 260.5V248.5C68.9001 248.3 68.9001 248.2 68.9001 248C68.9001 247.8 68.9001 247.7 68.9001 247.5C69.1001 244.2 71.5001 241.2 73.9001 241.2C76.7001 241.2 77.9001 243.9 77.9001 247.5V259.7ZM70.0001 228.7L69.9001 217.8C69.9001 217.6 69.9001 217.5 69.9001 217.3C69.9001 217.1 69.9001 217 69.9001 216.8C69.9001 212.7 73.1001 209.4 75.5001 209.4C78.3001 209.4 78.9001 212.4 78.9001 216L79.0001 226.1L70.0001 228.7ZM94.4001 291.9H83.2001V280.4C83.2001 280.3 83.2001 280.1 83.2001 280C83.2001 279.9 83.2001 279.7 83.2001 279.6C83.4001 276.4 85.8001 273.8 88.8001 273.8C91.8001 273.8 94.2001 276.3 94.4001 279.6V291.9V291.9ZM94.4001 258.5L83.2001 258.9V246.9C83.2001 246.7 83.2001 246.6 83.2001 246.4C83.2001 246.2 83.2001 246.1 83.2001 245.9C83.4001 242.6 85.8001 239.9 88.8001 239.9C91.8001 239.9 94.2001 242.5 94.4001 245.9V258.5V258.5ZM94.9001 223.5L84.3001 225.6V213.4C84.3001 213.2 84.3001 213.1 84.3001 212.9C84.3001 212.7 84.3001 212.6 84.3001 212.4C84.5001 209.1 86.7001 205.5 90.6001 205.5C93.4001 205.5 94.9001 207.9 94.9001 211.8V223.5ZM112.9 291.9H100.5V279.7C100.5 279.5 100.5 279.4 100.5 279.2C100.5 279 100.5 278.9 100.5 278.7C100.7 275.3 103.4 272.6 106.7 272.6C110 272.6 112.6 275.3 112.9 278.7V291.9ZM112.9 257.4L100.5 257.6V245.4C100.5 245 100.5 244.9 100.5 244.7C100.5 244.5 100.5 244.4 100.5 244.2C100.7 240.8 103.4 238.1 106.7 238.1C110 238.1 112.6 240.8 112.9 244.2V257.4ZM133.4 291.9H119.9V279.4C119.9 279.2 119.9 279.1 119.9 278.9C119.9 278.7 119.9 278.6 119.9 278.4C120.2 274.9 123.1 272.1 126.7 272.1C130.3 272.1 133.2 274.9 133.5 278.4V291.9H133.4ZM135 256.7H128.1L125 249V248C125 247.9 125 247.8 125 247.7C125 247.6 125 247.5 125 247.4C125.2 245 127.4 243.1 130 243.1C132.6 243.1 134.8 245 135 247.4V256.7ZM153.4 291.9H148.2L141.2 280C141.2 279.9 141.2 279.9 141.2 279.8C141.4 276.7 144.1 274.2 147.3 274.2C150.5 274.2 153.1 276.7 153.4 279.8V291.9ZM154.2 258.2H140.7V248.8C140.7 248.6 140.7 248.5 140.7 248.3C140.7 248.1 140.7 248 140.7 247.8C141 244.3 143.9 241.5 147.5 241.5C151.1 241.5 154 244.3 154.3 247.8V258.2H154.2ZM191.8 255.5C191.9 252.5 193.1 250.2 195.4 250.2C197.7 250.2 198.9 252.5 199 255.5V266.9H191.8V256.3C191.8 256.2 191.8 256 191.8 255.9C191.8 255.8 191.8 255.7 191.8 255.5ZM170.5 291.9H159V281.2C159 281.1 159 280.9 159 280.8C159 280.7 159 280.5 159 280.4C159.2 277.4 161.7 275 164.8 275C167.8 275 170.3 277.4 170.6 280.4V291.9H170.5ZM177.7 260.7H169.3V252.9C169.3 252.8 169.3 252.7 169.3 252.6C169.3 252.5 169.3 252.4 169.3 252.3C169.5 250.1 171.3 248.4 173.5 248.4C175.7 248.4 177.5 250.1 177.7 252.3V260.7V260.7ZM185.8 291.9H180.4V276.2C183.2 276.2 185.5 278.4 185.7 281.2V291.9H185.8ZM188.9 266.9H181.7V256.3C181.7 256.2 181.7 256 181.7 255.9C181.7 255.8 181.7 255.6 181.7 255.5C181.8 252.5 183 250.2 185.3 250.2C187.6 250.2 188.8 252.5 188.9 255.5V266.9ZM199.2 291.9H191.6V282.7C191.6 282.6 191.6 282.5 191.6 282.3C191.6 282.2 191.6 282.1 191.6 281.9C191.7 279.3 193.4 277.3 195.4 277.3C197.4 277.3 199 279.3 199.2 281.9V291.9V291.9ZM201.3 256.8C201.3 256.7 201.3 256.6 201.3 256.4C201.4 253.7 202.3 251.5 204.1 251.5C205.9 251.5 206.8 253.6 206.9 256.4V266.9H201.3V257.2C201.3 257.1 201.3 256.9 201.3 256.8ZM207.9 291.9H202.4V283.3C202.4 283.2 202.4 283.1 202.4 283C202.4 282.9 202.4 282.8 202.4 282.7C202.5 280.3 203.2 278.4 205.1 278.4C207 278.4 207.7 280.3 207.8 282.7V291.9H207.9ZM213.2 291.9H209.8V283.3C209.8 283.2 209.8 283.1 209.8 283C209.8 282.9 209.8 282.8 209.8 282.7C209.9 280.3 210.3 278.4 211.5 278.4C212.7 278.4 213.1 280.3 213.2 282.7V291.9V291.9ZM214.3 266.9H209.1V258C209.1 257.9 209.1 257.8 209.1 257.7C209.1 257.6 209.1 257.5 209.1 257.4C209.2 254.9 210 252.9 211.7 252.9C213.3 252.9 214.2 254.9 214.3 257.4V266.9ZM219.2 291.9H215.8V283.3C215.8 283.2 215.8 283.1 215.8 283C215.8 282.9 215.8 282.8 215.8 282.7C215.9 280.3 216.3 278.4 217.5 278.4C218.7 278.4 219.1 280.3 219.2 282.7V291.9V291.9ZM219.2 267.7H216.5V259.8C216.5 259.7 216.5 259.6 216.5 259.5C216.5 259.4 216.5 259.3 216.5 259.2C216.6 257 216.9 255.2 217.9 255.2C218.8 255.2 219.2 256.9 219.3 259.2V267.7H219.2ZM223.7 291.9H221.2V284.2C221.2 284.1 221.2 284 221.2 283.9C221.2 283.8 221.2 283.7 221.2 283.6C221.2 281.4 221.6 279.7 222.4 279.7C223.3 279.7 223.6 281.4 223.6 283.6V291.9H223.7ZM223.7 268.3H221.1V260.4C221.1 260.3 221.1 260.2 221.1 260.1C221.1 260 221.1 259.9 221.1 259.8C221.2 257.6 221.5 255.8 222.4 255.8C223.3 255.8 223.7 257.5 223.7 259.8V268.3V268.3ZM226.5 291.9H224.4V284.6C224.4 284.5 224.4 284.4 224.4 284.3C224.4 284.2 224.4 284.1 224.4 284C224.4 282 224.7 280.4 225.5 280.4C226.2 280.4 226.5 282 226.6 284V291.9H226.5ZM226.8 268.3H224.7V261.9C224.7 261.8 224.7 261.7 224.7 261.7C224.7 261.6 224.7 261.5 224.7 261.5C224.7 259.7 225 258.3 225.8 258.3C226.5 258.3 226.8 259.7 226.9 261.5V268.3H226.8ZM228.9 291.9H227.3V285.4C227.3 285.3 227.3 285.2 227.3 285.2C227.3 285.1 227.3 285 227.3 285C227.3 283.2 227.5 281.8 228.1 281.8C228.7 281.8 228.9 283.2 228.9 285V291.9V291.9ZM228.9 268.7H227.8V263.1C227.8 263 227.8 263 227.8 262.9C227.8 262.8 227.8 262.8 227.8 262.7C227.8 261.1 228 259.9 228.3 259.9C228.7 259.9 228.8 261.1 228.8 262.7V268.7H228.9Z" fill="#12468D"/>
<path d="M325.8 231.3V229.9H323.7H245.2H243.1V231.3H245.2V244H243.9V245.9H245.2V270.1H244V272.1H245.2V289.8H243.9V294H245.2H252H253.7V279.7C253.7 276.7 256.1 274.3 259.1 274.3C262.1 274.3 264.5 276.7 264.5 279.7V294H274.1V271.4C274.1 265.7 278.7 261.1 284.4 261.1C290.1 261.1 294.7 265.7 294.7 271.4V294H304.3V279.7C304.3 276.7 306.7 274.3 309.7 274.3C312.7 274.3 315.1 276.7 315.1 279.7V294H317H323.6H324.9V289.8H323.6V272.1H325V270.1H323.6V245.9H325V244H323.6V231.3H325.8Z" fill="#12468D"/>
<path d="M390.4 226.2L339.8 247.2H341.7V248.5H345V249.8H346V251.1H347V255.3V257.3H347.5V257.7H347.9V289.5H347.2V290.5H346.9V291.4H345V293.9H435V291.4H433.3V290.5H433V289.5H432.3V257.7H432.7V257.3H433.2V255.3H433.3V251.2H434.3V249.9H435.3V248.6H438.6V247.2H440.5L390.4 226.2ZM352.1 291.6V290.7H351.8V289.7H351.1V257.9H351.5V257.5H352V255.5H358.5V257.5H359V257.9H359.4V289.7H358.7V290.7H358.4V291.6H352.1ZM363.7 291.6V290.7H363.4V289.7H362.7V257.9H363.1V257.5H363.6V255.5H370.1V257.5H370.6V257.9H371V289.7H370.3V290.7H370V291.6H363.7ZM375.3 291.6V290.7H375V289.7H374.3V257.9H374.7V257.5H375.2V255.5H381.7V257.5H382.2V257.9H382.6V289.7H382V290.7H381.7V291.6H375.3ZM386.9 291.6V290.7H386.6V289.7H386V257.9H386.4V257.5H386.9V255.5H393.4V257.5H393.9V257.9H394.3V289.7H393.6V290.7H393.3V291.6H386.9ZM398.5 291.6V290.7H398.2V289.7H397.5V257.9H397.9V257.5H398.4V255.5H404.9V257.5H405.4V257.9H405.8V289.7H405.1V290.7H404.8V291.6H398.5ZM410.2 291.6V290.7H409.9V289.7H409.2V257.9H409.6V257.5H410.1V255.5H416.6V257.5H417.1V257.9H417.5V289.7H416.8V290.7H416.5V291.6H410.2ZM428.7 257.5V257.9H429.1V289.7H428.4V290.7H428.1V291.6H421.8V290.7H421.5V289.7H420.8V257.9H421.2V257.5H421.7V255.5H428.2V257.5H428.7Z" fill="#12468D"/>
</g>
</g>
<defs>
<clipPath id="clip0">
<rect width="467" height="270" fill="white" transform="translate(0 24)"/>
</clipPath>
</defs>
</svg>
