<svg width="467" height="270" viewBox="0 0 467 270" fill="none" xmlns="http://www.w3.org/2000/svg">
<g opacity="0.25" clip-path="url(#clip0)">
<path d="M148.2 197.5V205.1H126.5L117.9 196.5C117.9 196.5 110.9 197.5 107.8 198.1C107.8 198.1 105.8 184.2 103.2 182.6V166.4L101 163.6H97.6001L90.6001 145.1C90.6001 145.1 88.6001 140.1 85.2001 138.7V137.2L82.0001 134C82.0001 134 37.2001 144.1 31.9001 178.9L33.3001 179.8V184.3C33.3001 184.3 32.8001 185.5 32.6001 186.8C32.6001 186.8 31.9001 187.5 31.9001 190.2L32.5001 191.4V201.2C32.5001 201.2 28.9001 206.9 31.9001 214.3V223.3C31.9001 223.3 26.8001 228.8 31.3001 233.7V249.3C31.3001 249.3 29.6001 251.4 31.3001 252.6V270H229.6V220.3C229.7 220.3 222.8 195.3 148.2 197.5ZM60.4001 162.7L64.4001 161.4V167.8L60.4001 168.9V162.7V162.7ZM43.6001 174.9L46.1001 172.7V179.1L43.6001 181V174.9ZM41.3001 230.8C41.4001 227.9 42.2001 225.5 43.7001 225.5C44.9001 225.5 45.4001 227.8 45.4001 230.8V240.6L41.3001 242V231.7C41.3001 231.6 41.3001 231.4 41.3001 231.3C41.3001 231.1 41.3001 231 41.3001 230.8ZM35.3001 185.5L36.6001 184.1V190.2L35.3001 191.3V185.5ZM34.8001 211.2C34.8001 209 35.2001 207.1 35.9001 207.1C36.5001 207.1 36.7001 208.8 36.7001 211.1V218.4L34.9001 219.4V211.7C34.9001 211.6 34.9001 211.5 34.9001 211.4C34.8001 211.4 34.8001 211.3 34.8001 211.2ZM35.7001 243.2L33.9001 244.2V236.5C33.9001 236.4 33.9001 236.3 33.9001 236.2C33.9001 236.1 33.9001 236 33.9001 235.9C33.9001 233.7 34.3001 231.9 35.0001 231.9C35.6001 231.9 35.8001 233.6 35.8001 235.9V243.2H35.7001ZM39.1001 267.9H36.4001V259.4C36.4001 259.3 36.4001 259.2 36.4001 259.1C36.4001 259 36.4001 258.9 36.4001 258.8C36.5001 256.4 36.8001 254.5 37.7001 254.5C38.4001 254.5 39.0001 256.4 39.0001 258.8V267.9H39.1001ZM39.7001 242L37.1001 243.1V233.9C37.1001 233.8 37.1001 233.7 37.1001 233.5C37.1001 233.4 37.1001 233.3 37.1001 233.1C37.2001 230.5 37.7001 228.2 38.6001 228.2C39.4001 228.2 39.7001 230.3 39.7001 233.1V242ZM45.6001 267.9H40.6001V258.4C40.6001 258.3 40.6001 258.2 40.6001 258C40.6001 257.9 40.6001 257.8 40.6001 257.6C40.7001 254.9 40.8001 252.8 43.1001 252.8C44.4001 252.8 45.5001 254.9 45.6001 257.6V267.9ZM46.4001 213L42.3001 214.8V204.2C42.3001 204.1 42.3001 203.9 42.3001 203.8C42.3001 203.7 42.3001 203.5 42.3001 203.4C42.4001 200.6 43.2001 198.1 44.7001 198.1C45.9001 198.1 46.4001 200.4 46.4001 203.4V213ZM47.9001 229C47.9001 228.9 47.9001 228.7 47.9001 228.6C48.0001 225.5 49.7001 222.9 51.3001 222.9C53.2001 222.9 54.0001 225.3 54.0001 228.6V239.2L47.9001 240.4V229.4C47.9001 229.3 47.9001 229.1 47.9001 229ZM54.3001 267.9H48.1001V257.7C48.1001 257.6 48.1001 257.4 48.1001 257.3C48.1001 257.2 48.1001 257 48.1001 256.9C48.2001 254 48.8001 251.8 51.2001 251.8C52.8001 251.8 54.2001 254.1 54.3001 256.9V267.9ZM55.0001 208.8L48.9001 211.6V201.1C48.9001 201 48.9001 200.8 48.9001 200.7C48.9001 200.6 48.9001 200.4 48.9001 200.3C49.0001 197.2 50.7001 194.6 52.3001 194.6C54.2001 194.6 55.0001 197 55.0001 200.3V208.8ZM64.5001 267.9H56.9001V257.7C56.9001 257.6 56.9001 257.4 56.9001 257.3C56.9001 257.2 56.9001 257 56.9001 256.9C57.0001 254 58.7001 251.8 60.7001 251.8C62.7001 251.8 64.4001 254.1 64.5001 256.9V267.9ZM64.6001 237.3L57.3001 238.7V227.4C57.3001 227.3 57.3001 227.1 57.3001 227C57.3001 226.9 57.3001 226.7 57.3001 226.6C57.4001 223.4 59.4001 220.7 61.4001 220.7C63.6001 220.7 64.6001 223.2 64.6001 226.6V237.3ZM65.6001 205.9L58.3001 208.1V197.2C58.3001 197.1 58.3001 196.9 58.3001 196.8C58.3001 196.7 58.3001 196.5 58.3001 196.4C58.4001 193.2 60.1001 190.4 62.4001 190.1C64.6001 189.8 65.6001 192.6 65.6001 196V205.9ZM77.9001 267.9H68.7001V256.4C68.7001 256.3 68.7001 256.1 68.7001 256C68.7001 255.9 68.7001 255.7 68.7001 255.6C68.9001 252.4 70.9001 249.8 73.3001 249.8C75.7001 249.8 77.7001 252.3 77.9001 255.6V267.9V267.9ZM77.9001 235.7L68.9001 236.5V224.5C68.9001 224.3 68.9001 224.2 68.9001 224C68.9001 223.8 68.9001 223.7 68.9001 223.5C69.1001 220.2 71.5001 217.2 73.9001 217.2C76.7001 217.2 77.9001 219.9 77.9001 223.5V235.7ZM70.0001 204.7L69.9001 193.8C69.9001 193.6 69.9001 193.5 69.9001 193.3C69.9001 193.1 69.9001 193 69.9001 192.8C69.9001 188.7 73.1001 185.4 75.5001 185.4C78.3001 185.4 78.9001 188.4 78.9001 192L79.0001 202.1L70.0001 204.7ZM94.4001 267.9H83.2001V256.4C83.2001 256.3 83.2001 256.1 83.2001 256C83.2001 255.9 83.2001 255.7 83.2001 255.6C83.4001 252.4 85.8001 249.8 88.8001 249.8C91.8001 249.8 94.2001 252.3 94.4001 255.6V267.9V267.9ZM94.4001 234.5L83.2001 234.9V222.9C83.2001 222.7 83.2001 222.6 83.2001 222.4C83.2001 222.2 83.2001 222.1 83.2001 221.9C83.4001 218.6 85.8001 215.9 88.8001 215.9C91.8001 215.9 94.2001 218.5 94.4001 221.9V234.5V234.5ZM94.9001 199.5L84.3001 201.6V189.4C84.3001 189.2 84.3001 189.1 84.3001 188.9C84.3001 188.7 84.3001 188.6 84.3001 188.4C84.5001 185.1 86.7001 181.5 90.6001 181.5C93.4001 181.5 94.9001 183.9 94.9001 187.8V199.5ZM112.9 267.9H100.5V255.7C100.5 255.5 100.5 255.4 100.5 255.2C100.5 255 100.5 254.9 100.5 254.7C100.7 251.3 103.4 248.6 106.7 248.6C110 248.6 112.6 251.3 112.9 254.7V267.9ZM112.9 233.4L100.5 233.6V221.4C100.5 221 100.5 220.9 100.5 220.7C100.5 220.5 100.5 220.4 100.5 220.2C100.7 216.8 103.4 214.1 106.7 214.1C110 214.1 112.6 216.8 112.9 220.2V233.4ZM133.4 267.9H119.9V255.4C119.9 255.2 119.9 255.1 119.9 254.9C119.9 254.7 119.9 254.6 119.9 254.4C120.2 250.9 123.1 248.1 126.7 248.1C130.3 248.1 133.2 250.9 133.5 254.4V267.9H133.4ZM135 232.7H128.1L125 225V224C125 223.9 125 223.8 125 223.7C125 223.6 125 223.5 125 223.4C125.2 221 127.4 219.1 130 219.1C132.6 219.1 134.8 221 135 223.4V232.7ZM153.4 267.9H148.2L141.2 256C141.2 255.9 141.2 255.9 141.2 255.8C141.4 252.7 144.1 250.2 147.3 250.2C150.5 250.2 153.1 252.7 153.4 255.8V267.9ZM154.2 234.2H140.7V224.8C140.7 224.6 140.7 224.5 140.7 224.3C140.7 224.1 140.7 224 140.7 223.8C141 220.3 143.9 217.5 147.5 217.5C151.1 217.5 154 220.3 154.3 223.8V234.2H154.2ZM191.8 231.5C191.9 228.5 193.1 226.2 195.4 226.2C197.7 226.2 198.9 228.5 199 231.5V242.9H191.8V232.3C191.8 232.2 191.8 232 191.8 231.9C191.8 231.8 191.8 231.7 191.8 231.5ZM170.5 267.9H159V257.2C159 257.1 159 256.9 159 256.8C159 256.7 159 256.5 159 256.4C159.2 253.4 161.7 251 164.8 251C167.8 251 170.3 253.4 170.6 256.4V267.9H170.5ZM177.7 236.7H169.3V228.9C169.3 228.8 169.3 228.7 169.3 228.6C169.3 228.5 169.3 228.4 169.3 228.3C169.5 226.1 171.3 224.4 173.5 224.4C175.7 224.4 177.5 226.1 177.7 228.3V236.7V236.7ZM185.8 267.9H180.4V252.2C183.2 252.2 185.5 254.4 185.7 257.2V267.9H185.8ZM188.9 242.9H181.7V232.3C181.7 232.2 181.7 232 181.7 231.9C181.7 231.8 181.7 231.6 181.7 231.5C181.8 228.5 183 226.2 185.3 226.2C187.6 226.2 188.8 228.5 188.9 231.5V242.9ZM199.2 267.9H191.6V258.7C191.6 258.6 191.6 258.5 191.6 258.3C191.6 258.2 191.6 258.1 191.6 257.9C191.7 255.3 193.4 253.3 195.4 253.3C197.4 253.3 199 255.3 199.2 257.9V267.9V267.9ZM201.3 232.8C201.3 232.7 201.3 232.6 201.3 232.4C201.4 229.7 202.3 227.5 204.1 227.5C205.9 227.5 206.8 229.6 206.9 232.4V242.9H201.3V233.2C201.3 233.1 201.3 232.9 201.3 232.8ZM207.9 267.9H202.4V259.3C202.4 259.2 202.4 259.1 202.4 259C202.4 258.9 202.4 258.8 202.4 258.7C202.5 256.3 203.2 254.4 205.1 254.4C207 254.4 207.7 256.3 207.8 258.7V267.9H207.9ZM213.2 267.9H209.8V259.3C209.8 259.2 209.8 259.1 209.8 259C209.8 258.9 209.8 258.8 209.8 258.7C209.9 256.3 210.3 254.4 211.5 254.4C212.7 254.4 213.1 256.3 213.2 258.7V267.9V267.9ZM214.3 242.9H209.1V234C209.1 233.9 209.1 233.8 209.1 233.7C209.1 233.6 209.1 233.5 209.1 233.4C209.2 230.9 210 228.9 211.7 228.9C213.3 228.9 214.2 230.9 214.3 233.4V242.9ZM219.2 267.9H215.8V259.3C215.8 259.2 215.8 259.1 215.8 259C215.8 258.9 215.8 258.8 215.8 258.7C215.9 256.3 216.3 254.4 217.5 254.4C218.7 254.4 219.1 256.3 219.2 258.7V267.9V267.9ZM219.2 243.7H216.5V235.8C216.5 235.7 216.5 235.6 216.5 235.5C216.5 235.4 216.5 235.3 216.5 235.2C216.6 233 216.9 231.2 217.9 231.2C218.8 231.2 219.2 232.9 219.3 235.2V243.7H219.2ZM223.7 267.9H221.2V260.2C221.2 260.1 221.2 260 221.2 259.9C221.2 259.8 221.2 259.7 221.2 259.6C221.2 257.4 221.6 255.7 222.4 255.7C223.3 255.7 223.6 257.4 223.6 259.6V267.9H223.7ZM223.7 244.3H221.1V236.4C221.1 236.3 221.1 236.2 221.1 236.1C221.1 236 221.1 235.9 221.1 235.8C221.2 233.6 221.5 231.8 222.4 231.8C223.3 231.8 223.7 233.5 223.7 235.8V244.3V244.3ZM226.5 267.9H224.4V260.6C224.4 260.5 224.4 260.4 224.4 260.3C224.4 260.2 224.4 260.1 224.4 260C224.4 258 224.7 256.4 225.5 256.4C226.2 256.4 226.5 258 226.6 260V267.9H226.5ZM226.8 244.3H224.7V237.9C224.7 237.8 224.7 237.7 224.7 237.7C224.7 237.6 224.7 237.5 224.7 237.5C224.7 235.7 225 234.3 225.8 234.3C226.5 234.3 226.8 235.7 226.9 237.5V244.3H226.8ZM228.9 267.9H227.3V261.4C227.3 261.3 227.3 261.2 227.3 261.2C227.3 261.1 227.3 261 227.3 261C227.3 259.2 227.5 257.8 228.1 257.8C228.7 257.8 228.9 259.2 228.9 261V267.9V267.9ZM228.9 244.7H227.8V239.1C227.8 239 227.8 239 227.8 238.9C227.8 238.8 227.8 238.8 227.8 238.7C227.8 237.1 228 235.9 228.3 235.9C228.7 235.9 228.8 237.1 228.8 238.7V244.7H228.9Z" fill="#74382E"/>
<path d="M325.8 207.3V205.9H323.7H245.2H243.1V207.3H245.2V220H243.9V221.9H245.2V246.1H244V248.1H245.2V265.8H243.9V270H245.2H252H253.7V255.7C253.7 252.7 256.1 250.3 259.1 250.3C262.1 250.3 264.5 252.7 264.5 255.7V270H274.1V247.4C274.1 241.7 278.7 237.1 284.4 237.1C290.1 237.1 294.7 241.7 294.7 247.4V270H304.3V255.7C304.3 252.7 306.7 250.3 309.7 250.3C312.7 250.3 315.1 252.7 315.1 255.7V270H317H323.6H324.9V265.8H323.6V248.1H325V246.1H323.6V221.9H325V220H323.6V207.3H325.8Z" fill="#74382E"/>
<path d="M390.4 202.2L339.8 223.2H341.7V224.5H345V225.8H346V227.1H347V231.3V233.3H347.5V233.7H347.9V265.5H347.2V266.5H346.9V267.4H345V269.9H435V267.4H433.3V266.5H433V265.5H432.3V233.7H432.7V233.3H433.2V231.3H433.3V227.2H434.3V225.9H435.3V224.6H438.6V223.2H440.5L390.4 202.2ZM352.1 267.6V266.7H351.8V265.7H351.1V233.9H351.5V233.5H352V231.5H358.5V233.5H359V233.9H359.4V265.7H358.7V266.7H358.4V267.6H352.1ZM363.7 267.6V266.7H363.4V265.7H362.7V233.9H363.1V233.5H363.6V231.5H370.1V233.5H370.6V233.9H371V265.7H370.3V266.7H370V267.6H363.7ZM375.3 267.6V266.7H375V265.7H374.3V233.9H374.7V233.5H375.2V231.5H381.7V233.5H382.2V233.9H382.6V265.7H382V266.7H381.7V267.6H375.3ZM386.9 267.6V266.7H386.6V265.7H386V233.9H386.4V233.5H386.9V231.5H393.4V233.5H393.9V233.9H394.3V265.7H393.6V266.7H393.3V267.6H386.9ZM398.5 267.6V266.7H398.2V265.7H397.5V233.9H397.9V233.5H398.4V231.5H404.9V233.5H405.4V233.9H405.8V265.7H405.1V266.7H404.8V267.6H398.5ZM410.2 267.6V266.7H409.9V265.7H409.2V233.9H409.6V233.5H410.1V231.5H416.6V233.5H417.1V233.9H417.5V265.7H416.8V266.7H416.5V267.6H410.2ZM428.7 233.5V233.9H429.1V265.7H428.4V266.7H428.1V267.6H421.8V266.7H421.5V265.7H420.8V233.9H421.2V233.5H421.7V231.5H428.2V233.5H428.7Z" fill="#74382E"/>
</g>
<defs>
<clipPath id="clip0">
<rect width="467" height="270" fill="white"/>
</clipPath>
</defs>
</svg>
