<svg width="467" height="294" viewBox="0 0 467 294" fill="none" xmlns="http://www.w3.org/2000/svg">
<g clip-path="url(#clip0)">
<path opacity="0.3" fill-rule="evenodd" clip-rule="evenodd" d="M148.2 229.1V221.5C222.8 219.3 229.7 244.3 229.6 244.3V294H243.9V289.8H245.2V272.1H244V270.1H245.2V245.9H243.9V244H245.2V231.3H243.1V229.9H245.2H323.7H325.8V231.3H323.6V244H325V245.9H323.6V270.1H325V272.1H323.6V289.8H324.9V294H467V317H0V294H31.3001V276.6C29.6001 275.4 31.3001 273.3 31.3001 273.3V257.7C26.8001 252.8 31.9001 247.3 31.9001 247.3V238.3C28.9001 230.9 32.5001 225.2 32.5001 225.2V215.4L31.9001 214.2C31.9001 211.5 32.6001 210.8 32.6001 210.8C32.8001 209.5 33.3001 208.3 33.3001 208.3V203.8L31.9001 202.9C37.2001 168.1 82.0001 158 82.0001 158L85.2001 161.2V162.7C88.6001 164.1 90.6001 169.1 90.6001 169.1L97.6001 187.6H101L103.2 190.4V206.6C105.8 208.2 107.8 222.1 107.8 222.1C110.9 221.5 117.9 220.5 117.9 220.5L126.5 229.1H148.2ZM315.1 294V279.7C315.1 276.7 312.7 274.3 309.7 274.3C306.7 274.3 304.3 276.7 304.3 279.7V294H315.1ZM294.7 294V271.4C294.7 265.7 290.1 261.1 284.4 261.1C278.7 261.1 274.1 265.7 274.1 271.4V294H294.7ZM264.5 294V279.7C264.5 276.7 262.1 274.3 259.1 274.3C256.1 274.3 253.7 276.7 253.7 279.7V294H264.5ZM64.4001 185.4L60.4001 186.7V192.9L64.4001 191.8V185.4ZM46.1001 196.7L43.6001 198.9V205L46.1001 203.1V196.7ZM43.7001 249.5C42.2001 249.5 41.4001 251.9 41.3001 254.8V255.3V255.7V266L45.4001 264.6V254.8C45.4001 251.8 44.9001 249.5 43.7001 249.5ZM36.6001 208.1L35.3001 209.5V215.3L36.6001 214.2V208.1ZM35.9001 231.1C35.2001 231.1 34.8001 233 34.8001 235.2C34.8001 235.3 34.8001 235.4 34.9001 235.4V235.7V243.4L36.7001 242.4V235.1C36.7001 232.8 36.5001 231.1 35.9001 231.1ZM33.9001 260.5V268.2L35.7001 267.2H35.8001V259.9C35.8001 257.6 35.6001 255.9 35.0001 255.9C34.3001 255.9 33.9001 257.7 33.9001 259.9V260.2V260.5ZM36.4001 283.4V291.9H39.0001V282.8C39.0001 280.4 38.4001 278.5 37.7001 278.5C36.8001 278.5 36.5001 280.4 36.4001 282.8V283.1V283.4ZM37.1001 267.1L39.7001 266V257.1C39.7001 254.3 39.4001 252.2 38.6001 252.2C37.7001 252.2 37.2001 254.5 37.1001 257.1V257.5V257.9V267.1ZM40.6001 282.4V291.9H45.6001V281.6C45.5001 278.9 44.4001 276.8 43.1001 276.8C40.8001 276.8 40.7001 278.9 40.6001 281.6V282V282.4ZM42.3001 238.8L46.4001 237V227.4C46.4001 224.4 45.9001 222.1 44.7001 222.1C43.2001 222.1 42.4001 224.6 42.3001 227.4V227.8V228.2V238.8ZM47.9001 252.6V253V253.4V264.4L54.0001 263.2V252.6C54.0001 249.3 53.2001 246.9 51.3001 246.9C49.7001 246.9 48.0001 249.5 47.9001 252.6ZM48.1001 281.7V291.9H54.3001V280.9C54.2001 278.1 52.8001 275.8 51.2001 275.8C48.8001 275.8 48.2001 278 48.1001 280.9V281.3V281.7ZM48.9001 235.6L55.0001 232.8V224.3C55.0001 221 54.2001 218.6 52.3001 218.6C50.7001 218.6 49.0001 221.2 48.9001 224.3V224.7V225.1V235.6ZM56.9001 281.7V291.9H64.5001V280.9C64.4001 278.1 62.7001 275.8 60.7001 275.8C58.7001 275.8 57.0001 278 56.9001 280.9V281.3V281.7ZM57.3001 262.7L64.6001 261.3V250.6C64.6001 247.2 63.6001 244.7 61.4001 244.7C59.4001 244.7 57.4001 247.4 57.3001 250.6V251V251.4V262.7ZM58.3001 232.1L65.6001 229.9V220C65.6001 216.6 64.6001 213.8 62.4001 214.1C60.1001 214.4 58.4001 217.2 58.3001 220.4V220.8V221.2V232.1ZM68.7001 291.9H77.9001V279.6C77.7001 276.3 75.7001 273.8 73.3001 273.8C70.9001 273.8 68.9001 276.4 68.7001 279.6V280V280.4V291.9ZM68.9001 260.5L77.9001 259.7V247.5C77.9001 243.9 76.7001 241.2 73.9001 241.2C71.5001 241.2 69.1001 244.2 68.9001 247.5V248V248.5V260.5ZM69.9001 217.8L70.0001 228.7L79.0001 226.1L78.9001 216C78.9001 212.4 78.3001 209.4 75.5001 209.4C73.1001 209.4 69.9001 212.7 69.9001 216.8V217.3V217.8ZM83.2001 280.4V291.9H94.4001V279.6C94.2001 276.3 91.8001 273.8 88.8001 273.8C85.8001 273.8 83.4001 276.4 83.2001 279.6V280V280.4ZM83.2001 246.9V258.9L94.4001 258.5V245.9C94.2001 242.5 91.8001 239.9 88.8001 239.9C85.8001 239.9 83.4001 242.6 83.2001 245.9V246.4V246.9ZM84.3001 225.6L94.9001 223.5V211.8C94.9001 207.9 93.4001 205.5 90.6001 205.5C86.7001 205.5 84.5001 209.1 84.3001 212.4V212.9V213.4V225.6ZM100.5 279.7V291.9H112.9V278.7C112.6 275.3 110 272.6 106.7 272.6C103.4 272.6 100.7 275.3 100.5 278.7V279.2V279.7ZM100.5 245.4V257.6L112.9 257.4V244.2C112.6 240.8 110 238.1 106.7 238.1C103.4 238.1 100.7 240.8 100.5 244.2V244.7V245.4ZM119.9 291.9H133.4H133.5V278.4C133.2 274.9 130.3 272.1 126.7 272.1C123.1 272.1 120.2 274.9 119.9 278.4V278.9V279.4V291.9ZM128.1 256.7H135V247.4C134.8 245 132.6 243.1 130 243.1C127.4 243.1 125.2 245 125 247.4V247.7V248V249L128.1 256.7ZM148.2 291.9H153.4V279.8C153.1 276.7 150.5 274.2 147.3 274.2C144.1 274.2 141.4 276.7 141.2 279.8V280L148.2 291.9ZM140.7 258.2H154.2H154.3V247.8C154 244.3 151.1 241.5 147.5 241.5C143.9 241.5 141 244.3 140.7 247.8V248.3V248.8V258.2ZM195.4 250.2C193.1 250.2 191.9 252.5 191.8 255.5V255.9V256.3V266.9H199V255.5C198.9 252.5 197.7 250.2 195.4 250.2ZM159 291.9H170.5H170.6V280.4C170.3 277.4 167.8 275 164.8 275C161.7 275 159.2 277.4 159 280.4V280.8V281.2V291.9ZM169.3 260.7H177.7V252.3C177.5 250.1 175.7 248.4 173.5 248.4C171.3 248.4 169.5 250.1 169.3 252.3V252.6V252.9V260.7ZM180.4 291.9H185.7V281.2C185.5 278.4 183.2 276.2 180.4 276.2V291.9ZM181.7 266.9H188.9V255.5C188.8 252.5 187.6 250.2 185.3 250.2C183 250.2 181.8 252.5 181.7 255.5V255.9V256.3V266.9ZM191.6 282.7V291.9H199.2V281.9C199 279.3 197.4 277.3 195.4 277.3C193.4 277.3 191.7 279.3 191.6 281.9V282.3V282.7ZM201.3 256.4V256.8V257.2V266.9H206.9V256.4C206.8 253.6 205.9 251.5 204.1 251.5C202.3 251.5 201.4 253.7 201.3 256.4ZM202.4 283.3V291.9H207.8V282.7C207.7 280.3 207 278.4 205.1 278.4C203.2 278.4 202.5 280.3 202.4 282.7V283V283.3ZM209.8 283.3V291.9H213.2V282.7C213.1 280.3 212.7 278.4 211.5 278.4C210.3 278.4 209.9 280.3 209.8 282.7V283V283.3ZM209.1 266.9H214.3V257.4C214.2 254.9 213.3 252.9 211.7 252.9C210 252.9 209.2 254.9 209.1 257.4V257.7V258V266.9ZM215.8 283.3V291.9H219.2V282.7C219.1 280.3 218.7 278.4 217.5 278.4C216.3 278.4 215.9 280.3 215.8 282.7V283V283.3ZM216.5 267.7H219.2H219.3V259.2C219.2 256.9 218.8 255.2 217.9 255.2C216.9 255.2 216.6 257 216.5 259.2V259.5V259.8V267.7ZM221.2 284.2V291.9H223.6V283.6C223.6 281.4 223.3 279.7 222.4 279.7C221.6 279.7 221.2 281.4 221.2 283.6V283.9V284.2ZM221.1 260.4V268.3H223.7V259.8C223.7 257.5 223.3 255.8 222.4 255.8C221.5 255.8 221.2 257.6 221.1 259.8V260.1V260.4ZM224.4 291.9H226.5H226.6V284C226.5 282 226.2 280.4 225.5 280.4C224.7 280.4 224.4 282 224.4 284V284.3V284.6V291.9ZM224.7 268.3H226.8H226.9V261.5C226.8 259.7 226.5 258.3 225.8 258.3C225 258.3 224.7 259.7 224.7 261.5V261.7V261.9V268.3ZM227.3 285.4V291.9H228.9V285C228.9 283.2 228.7 281.8 228.1 281.8C227.5 281.8 227.3 283.2 227.3 285V285.2V285.4ZM228.8 268.7V262.7C228.8 261.1 228.7 259.9 228.3 259.9C228 259.9 227.8 261.1 227.8 262.7V262.9V263.1V268.7H228.8ZM390.4 226.2L339.8 247.2H341.7V248.5H345V249.8H346V251.1H347V255.3V257.3H347.5V257.7H347.9V289.5H347.2V290.5H346.9V291.4H345V293.9H435V291.4H433.3V290.5H433V289.5H432.3V257.7H432.7V257.3H433.2V255.3H433.3V251.2H434.3V249.9H435.3V248.6H438.6V247.2H440.5L390.4 226.2ZM352.1 291.6V290.7H351.8V289.7H351.1V257.9H351.5V257.5H352V255.5H358.5V257.5H359V257.9H359.4V289.7H358.7V290.7H358.4V291.6H352.1ZM363.7 291.6V290.7H363.4V289.7H362.7V257.9H363.1V257.5H363.6V255.5H370.1V257.5H370.6V257.9H371V289.7H370.3V290.7H370V291.6H363.7ZM375.3 291.6V290.7H375V289.7H374.3V257.9H374.7V257.5H375.2V255.5H381.7V257.5H382.2V257.9H382.6V289.7H382V290.7H381.7V291.6H375.3ZM386.9 291.6V290.7H386.6V289.7H386V257.9H386.4V257.5H386.9V255.5H393.4V257.5H393.9V257.9H394.3V289.7H393.6V290.7H393.3V291.6H386.9ZM398.5 291.6V290.7H398.2V289.7H397.5V257.9H397.9V257.5H398.4V255.5H404.9V257.5H405.4V257.9H405.8V289.7H405.1V290.7H404.8V291.6H398.5ZM410.2 291.6V290.7H409.9V289.7H409.2V257.9H409.6V257.5H410.1V255.5H416.6V257.5H417.1V257.9H417.5V289.7H416.8V290.7H416.5V291.6H410.2ZM428.7 257.9H429.1V289.7H428.4V290.7H428.1V291.6H421.8V290.7H421.5V289.7H420.8V257.9H421.2V257.5H421.7V255.5H428.2V257.5H428.7V257.9Z" fill="#00060A"/>
</g>
<defs>
<clipPath id="clip0">
<rect width="467" height="270" fill="white" transform="translate(0 24)"/>
</clipPath>
</defs>
</svg>
