<svg width="400" height="400" viewBox="0 0 400 400" fill="none" xmlns="http://www.w3.org/2000/svg">
<path d="M364.137 229.904L310.422 212.927C311.094 207.94 311.478 202.953 311.478 197.774C311.478 194.896 311.382 192.115 311.19 189.238L365 173.988L309.271 175.714C307.449 166.411 304.476 157.587 300.447 149.339L330.661 127.376L296.131 141.283C291.143 132.842 285.1 125.074 278.098 118.264L308.12 72.4191L268.027 109.44C260.641 103.686 252.488 98.8903 243.663 95.1498L251.145 63.6912L236.278 92.4643C227.453 89.4911 218.245 87.477 208.557 86.7097L202.61 33L195.32 86.4219C185.345 86.8056 175.657 88.532 166.449 91.4093L149.759 58.4162L157.912 94.4784C148.512 98.3148 139.688 103.398 131.727 109.536L91.8245 73.3782L121.943 118.36C115.325 124.882 109.473 132.171 104.678 140.132L74.3674 127.471L100.649 147.133C96.6204 154.998 93.4551 163.438 91.4408 172.262L36.9592 169.001L89.2347 185.593C88.7551 189.621 88.5633 193.841 88.5633 197.965C88.5633 201.994 88.7551 205.926 89.2347 209.858L36 224.724L91.3449 222.998C93.4551 232.109 96.7164 240.933 100.937 249.086L70.3388 271.337L105.637 257.142C110.72 265.294 116.859 272.584 123.765 279.105L92.7837 326.389L134.412 288.025C141.606 293.3 149.567 297.712 157.912 301.165L149.759 335.213L165.873 304.138C174.218 306.728 182.947 308.55 191.963 309.125L198.294 366L205.967 309.317C215.271 308.838 224.288 307.111 232.825 304.522L251.049 340.488L242.129 301.069C250.953 297.52 259.106 292.725 266.684 287.162L309.08 325.622L277.331 278.146C283.565 272.104 289.129 265.294 293.829 257.909L326.537 271.528L298.145 250.332C302.269 242.851 305.435 234.795 307.641 226.451L364.137 229.904Z" stroke="#FFC700" stroke-width="10" stroke-miterlimit="10" stroke-linejoin="round"/>
</svg>
