<svg width="360" height="415" viewBox="0 0 360 415" fill="none" xmlns="http://www.w3.org/2000/svg">
<g filter="url(#filter0_d)">
<path d="M343.594 237.044L290.132 220.142C290.801 215.176 291.182 210.211 291.182 205.054C291.182 202.19 291.087 199.42 290.896 196.556L344.453 181.372L288.987 183.091C287.173 173.829 284.213 165.043 280.204 156.831L310.276 134.964L275.908 148.81C270.943 140.407 264.929 132.672 257.96 125.892L287.841 80.247L247.936 117.107C240.585 111.377 232.47 106.603 223.687 102.878L231.133 71.5573L216.336 100.205C207.553 97.2445 198.388 95.2391 188.746 94.4752L182.827 41L175.571 94.1887C165.643 94.5707 156.001 96.2896 146.836 99.1543L130.224 66.3052L138.339 102.21C128.983 106.03 120.2 111.091 112.276 117.202L72.562 81.2019L102.539 125.987C95.9516 132.481 90.128 139.738 85.3547 147.664L55.187 135.059L81.345 154.635C77.3354 162.465 74.185 170.868 72.1802 179.654L17.9547 176.407L69.9844 192.927C69.5071 196.938 69.3161 201.139 69.3161 205.245C69.3161 209.256 69.5071 213.171 69.9844 217.086L17 231.887L72.0847 230.169C74.185 239.24 77.4309 248.025 81.6314 256.142L51.1773 278.296L86.3093 264.164C91.3691 272.28 97.479 279.538 104.353 286.031L73.5167 333.108L114.95 294.912C122.11 300.164 130.033 304.556 138.339 307.994L130.224 341.894L146.263 310.954C154.569 313.533 163.256 315.347 172.23 315.92L178.531 372.546L186.168 316.111C195.429 315.633 204.403 313.915 212.899 311.336L231.038 347.146L222.159 307.899C230.942 304.365 239.057 299.591 246.599 294.052L288.796 332.344L257.196 285.076C263.401 279.06 268.939 272.28 273.616 264.927L306.171 278.487L277.912 257.384C282.018 249.935 285.168 241.914 287.364 233.606L343.594 237.044Z" stroke="url(#paint0_linear)" stroke-width="10" stroke-miterlimit="10" stroke-linejoin="round"/>
</g>
<defs>
<filter id="filter0_d" x="-49" y="0" width="469" height="425" filterUnits="userSpaceOnUse" color-interpolation-filters="sRGB">
<feFlood flood-opacity="0" result="BackgroundImageFix"/>
<feColorMatrix in="SourceAlpha" type="matrix" values="0 0 0 0 0 0 0 0 0 0 0 0 0 0 0 0 0 0 127 0"/>
<feOffset dx="8" dy="8"/>
<feGaussianBlur stdDeviation="1"/>
<feColorMatrix type="matrix" values="0 0 0 0 0 0 0 0 0 0 0 0 0 0 0 0 0 0 0.75 0"/>
<feBlend mode="normal" in2="BackgroundImageFix" result="effect1_dropShadow"/>
<feBlend mode="normal" in="SourceGraphic" in2="effect1_dropShadow" result="shape"/>
</filter>
<linearGradient id="paint0_linear" x1="180.727" y1="41" x2="180.727" y2="372.546" gradientUnits="userSpaceOnUse">
<stop stop-color="white"/>
<stop offset="0.209945" stop-color="#FFC700"/>
<stop offset="0.839779" stop-color="#FFC700"/>
<stop offset="0.972376" stop-color="#BA9100"/>
</linearGradient>
</defs>
</svg>
