<svg width="27" height="27" viewBox="0 0 27 27" fill="none" xmlns="http://www.w3.org/2000/svg">
<path d="M25.4877 15.6074L21.4792 14.3481C21.5293 13.9781 21.5579 13.6081 21.5579 13.2239C21.5579 13.0104 21.5507 12.8041 21.5364 12.5906L25.5521 11.4593L21.3933 11.5874C21.2573 10.8972 21.0354 10.2426 20.7347 9.6307L22.9895 8.00133L20.4126 9.03302C20.0404 8.40689 19.5894 7.83056 19.0669 7.32538L21.3074 3.92433L18.3153 6.67079C17.7641 6.24388 17.1557 5.88812 16.4972 5.61063L17.0555 3.27685L15.946 5.4114C15.2875 5.19083 14.6003 5.04142 13.8773 4.98449L13.4335 1L12.8895 4.96315C12.1451 4.99161 11.4221 5.11968 10.7349 5.33314L9.48944 2.88552L10.0979 5.56082C9.39639 5.84543 8.73784 6.22253 8.14373 6.6779L5.16598 3.99549L7.41361 7.3325C6.9197 7.81633 6.48306 8.35708 6.12516 8.94764L3.86322 8.00844L5.82452 9.46705C5.52388 10.0505 5.28767 10.6766 5.13735 11.3312L1.07158 11.0893L4.97271 12.3202C4.93692 12.6191 4.92261 12.9321 4.92261 13.2381C4.92261 13.5369 4.93692 13.8286 4.97271 14.1204L1 15.2232L5.13019 15.0951C5.28767 15.7711 5.53104 16.4257 5.846 17.0305L3.56258 18.6812L6.19674 17.6281C6.57612 18.2329 7.03423 18.7737 7.54961 19.2575L5.23756 22.7653L8.34415 19.9192C8.88101 20.3106 9.47512 20.6379 10.0979 20.894L9.48944 23.4199L10.692 21.1146C11.3147 21.3067 11.9661 21.4419 12.639 21.4846L13.1114 25.7039L13.6841 21.4988C14.3784 21.4632 15.0512 21.3352 15.6883 21.143L17.0483 23.8112L16.3826 20.8869C17.0412 20.6236 17.6496 20.2679 18.2151 19.8552L21.3789 22.7084L19.0096 19.1864C19.4749 18.7381 19.8901 18.2329 20.2408 17.6851L22.6817 18.6954L20.5629 17.123C20.8707 16.568 21.1069 15.9703 21.2716 15.3513L25.4877 15.6074Z" stroke="#E8EEF1" stroke-miterlimit="10" stroke-linejoin="round"/>
</svg>
