<svg width="360" height="490" viewBox="0 0 360 490" fill="none" xmlns="http://www.w3.org/2000/svg">
<g filter="url(#filter0_d)">
<path d="M341.594 245.044L288.132 228.142C288.801 223.176 289.182 218.211 289.182 213.054C289.182 210.19 289.087 207.42 288.896 204.556L342.453 189.372L286.987 191.091C285.173 181.829 282.213 173.043 278.204 164.831L308.276 142.964L273.908 156.81C268.943 148.407 262.929 140.672 255.96 133.892L285.841 88.247L245.936 125.107C238.585 119.377 230.47 114.603 221.687 110.878L229.133 79.5573L214.336 108.205C205.553 105.244 196.388 103.239 186.746 102.475L180.827 49L173.571 102.189C163.643 102.571 154.001 104.29 144.836 107.154L128.224 74.3052L136.339 110.21C126.983 114.03 118.2 119.091 110.276 125.202L70.562 89.2019L100.539 133.987C93.9516 140.481 88.128 147.738 83.3547 155.664L53.187 143.059L79.345 162.635C75.3354 170.465 72.185 178.868 70.1802 187.654L15.9547 184.407L67.9844 200.927C67.5071 204.938 67.3161 209.139 67.3161 213.245C67.3161 217.256 67.5071 221.171 67.9844 225.086L15 239.887L70.0847 238.169C72.185 247.24 75.4309 256.025 79.6314 264.142L49.1773 286.296L84.3093 272.164C89.3691 280.28 95.479 287.538 102.353 294.031L71.5167 341.108L112.95 302.912C120.11 308.164 128.033 312.556 136.339 315.994L128.224 349.894L144.263 318.954C152.569 321.533 161.256 323.347 170.23 323.92L176.531 380.546L184.168 324.111C193.429 323.633 202.403 321.915 210.899 319.336L229.038 355.146L220.159 315.899C228.942 312.365 237.057 307.591 244.599 302.052L286.796 340.344L255.196 293.076C261.401 287.06 266.938 280.28 271.616 272.927L304.171 286.487L275.912 265.384C280.018 257.935 283.168 249.914 285.364 241.606L341.594 245.044Z" stroke="#FFC700" stroke-width="10" stroke-miterlimit="10" stroke-linejoin="round"/>
</g>
<defs>
<filter id="filter0_d" x="-4" y="0" width="526" height="502" filterUnits="userSpaceOnUse" color-interpolation-filters="sRGB">
<feFlood flood-opacity="0" result="BackgroundImageFix"/>
<feColorMatrix in="SourceAlpha" type="matrix" values="0 0 0 0 0 0 0 0 0 0 0 0 0 0 0 0 0 0 127 0"/>
<feOffset dx="8" dy="8"/>
<feGaussianBlur stdDeviation="2"/>
<feColorMatrix type="matrix" values="0 0 0 0 0 0 0 0 0 0 0 0 0 0 0 0 0 0 1 0"/>
<feBlend mode="normal" in2="BackgroundImageFix" result="effect1_dropShadow"/>
<feBlend mode="normal" in="SourceGraphic" in2="effect1_dropShadow" result="shape"/>
</filter>
</defs>
</svg>
